<?xml version="1.0" standalone="no"?>
<!DOCTYPE svg PUBLIC "-//W3C//DTD SVG 20010904//EN"
 "http://www.w3.org/TR/2001/REC-SVG-20010904/DTD/svg10.dtd">
<svg version="1.0" xmlns="http://www.w3.org/2000/svg"
 width="335.000000pt" height="335.000000pt" viewBox="0 0 335.000000 335.000000"
 preserveAspectRatio="xMidYMid meet">
<metadata>
Created by potrace 1.11, written by Peter Selinger 2001-2013
</metadata>
<g transform="translate(0.000000,335.000000) scale(0.100000,-0.100000)"
fill="#000000" stroke="none">
<path d="M2059 3333 c-6 -7 -15 -13 -20 -13 -4 0 -36 -19 -71 -41 -148 -97
-204 -135 -216 -146 -7 -7 -16 -13 -20 -13 -4 0 -24 -16 -45 -35 -20 -19 -43
-38 -51 -42 -19 -11 -133 -110 -183 -160 -24 -23 -43 -40 -43 -37 0 2 -25 -21
-55 -52 -30 -31 -55 -61 -55 -66 0 -5 -4 -6 -10 -3 -5 3 -10 2 -10 -3 0 -5
-13 -22 -28 -38 -16 -17 -31 -38 -35 -47 -3 -9 -11 -17 -17 -17 -5 0 -10 -4
-10 -10 0 -10 -20 -37 -52 -72 -10 -10 -19 -21 -19 -25 -2 -9 -50 -75 -60 -83
-4 -3 -9 -15 -13 -27 -4 -13 -12 -23 -17 -23 -5 0 -9 -4 -9 -9 0 -5 -16 -37
-34 -70 -19 -34 -33 -61 -30 -61 3 0 -1 -10 -8 -22 -7 -13 -11 -26 -10 -30 1
-5 -3 -8 -9 -8 -6 0 -9 -6 -6 -14 3 -8 -1 -20 -8 -26 -8 -7 -13 -16 -10 -20 3
-5 1 -11 -5 -15 -6 -4 -8 -11 -5 -16 4 -5 1 -9 -4 -9 -6 0 -11 -9 -11 -19 0
-11 -5 -23 -10 -26 -6 -4 -8 -10 -5 -15 3 -5 1 -17 -4 -27 -16 -31 -24 -57
-22 -75 1 -10 -3 -18 -10 -18 -9 0 -9 -3 0 -14 7 -8 8 -16 2 -18 -9 -3 -23
-84 -24 -135 -1 -13 -5 -23 -10 -23 -5 0 -4 -6 2 -14 7 -9 8 -17 2 -20 -10 -7
-9 -31 2 -42 3 -4 3 -14 -2 -23 -8 -18 -7 -147 2 -171 5 -14 18 -63 22 -85 1
-5 3 -13 5 -17 1 -5 3 -11 5 -15 3 -12 25 -65 43 -103 24 -53 84 -140 95 -140
6 0 8 -3 5 -6 -7 -6 96 -111 149 -150 21 -16 47 -37 57 -46 11 -10 25 -18 32
-18 7 0 14 -4 16 -9 4 -9 136 -91 148 -91 5 0 21 -7 37 -15 27 -14 65 -30 131
-55 38 -15 51 -8 28 15 -8 9 -23 33 -33 53 -9 20 -25 49 -35 64 -11 16 -17 32
-14 37 3 5 -1 14 -9 21 -8 7 -15 19 -15 26 0 8 -4 22 -9 32 -8 15 -24 57 -21
57 0 0 -8 25 -18 55 -11 30 -20 57 -20 60 0 3 -5 18 -11 33 -6 16 -13 43 -15
60 -2 18 -8 43 -14 57 -5 14 -8 33 -7 43 2 9 -1 17 -6 17 -4 0 -6 6 -3 13 3 8
0 25 -5 39 -7 18 -6 29 2 37 7 7 7 11 1 11 -13 0 -13 268 -1 288 5 7 4 12 -3
12 -6 0 -9 4 -6 9 3 5 8 26 12 47 13 85 39 183 63 239 28 64 96 201 102 205 3
3 14 19 23 35 28 49 63 95 134 173 37 41 69 78 72 81 3 4 18 17 34 29 16 12
25 22 21 22 -4 0 4 9 18 20 39 31 48 26 33 -17 -7 -21 -11 -44 -9 -50 3 -7 1
-13 -4 -13 -4 0 -9 -10 -9 -22 -2 -27 -12 -121 -15 -128 -1 -3 -1 -20 -1 -37
0 -18 -4 -33 -9 -33 -5 0 -5 -10 1 -24 6 -17 5 -26 -3 -30 -9 -3 -9 -5 0 -5 7
-1 10 -8 7 -16 -9 -23 -10 -146 -2 -151 5 -3 3 -14 -3 -26 -8 -15 -8 -19 0
-14 7 5 11 -3 12 -21 3 -61 12 -98 46 -195 14 -43 30 -78 35 -78 5 0 7 -4 4
-9 -3 -5 3 -20 14 -34 11 -14 20 -28 20 -32 0 -3 10 -17 23 -30 l22 -25 1 53
c1 59 9 117 23 164 5 17 7 34 3 37 -3 3 -1 6 4 6 6 0 16 15 22 34 7 19 20 37
28 40 8 3 12 10 9 16 -3 5 1 10 9 10 9 0 16 -8 16 -17 0 -24 32 -106 44 -115
6 -4 8 -8 4 -8 -8 0 53 -125 90 -185 14 -22 25 -46 25 -52 0 -7 4 -13 8 -13
10 0 66 -120 81 -174 7 -25 15 -46 18 -46 7 0 12 -61 12 -145 0 -98 -6 -155
-14 -155 -5 0 -8 -7 -8 -15 0 -15 -68 -165 -80 -175 -3 -3 -17 -26 -30 -53
-14 -26 -29 -47 -33 -47 -5 0 -6 -4 -2 -9 3 -5 -5 -17 -17 -25 -17 -12 -19
-19 -10 -28 9 -9 13 -7 18 5 3 9 10 15 14 12 10 -6 60 15 60 25 0 3 16 12 35
20 19 8 35 16 35 20 0 3 15 14 33 25 17 10 51 38 74 61 23 23 45 39 48 36 3
-3 5 -1 5 4 0 5 12 23 28 40 48 54 132 178 132 197 0 7 7 21 15 31 8 10 12 23
9 27 -3 5 0 9 5 9 6 0 11 9 11 20 0 11 5 20 12 20 6 0 9 3 5 6 -3 3 -2 17 3
30 6 14 12 35 15 47 2 12 10 42 16 67 6 25 11 52 12 60 0 8 5 21 11 29 9 12 8
13 -3 7 -10 -7 -12 -3 -6 15 9 26 8 172 0 209 -3 14 -8 36 -11 50 -2 14 -7 32
-11 40 -3 8 -7 22 -9 30 -7 40 -11 50 -17 56 -4 4 -7 18 -7 31 0 12 -4 23 -10
23 -5 0 -10 7 -10 15 0 8 -4 23 -8 33 -5 9 -23 46 -40 82 -18 36 -32 71 -32
78 0 7 -3 12 -8 12 -4 0 -18 21 -32 48 -13 26 -27 49 -30 52 -3 3 -14 21 -24
40 -11 19 -22 37 -26 40 -8 7 -70 100 -70 106 0 4 -9 16 -36 47 -5 7 -13 19
-17 27 -4 8 -25 42 -47 75 -22 33 -50 79 -62 103 -12 23 -25 42 -29 42 -4 0
-10 14 -14 30 -4 17 -10 30 -14 30 -9 0 -51 86 -51 104 0 8 -4 16 -10 18 -5 2
-11 17 -13 33 -2 17 -7 36 -11 43 -7 12 -9 24 -23 122 -7 48 -8 87 -4 178 1
13 5 21 10 18 5 -4 7 2 4 12 -5 22 -29 24 -44 5z"/>
<path d="M802 1253 c-6 -2 -10 -9 -6 -14 3 -5 1 -9 -5 -9 -6 0 -18 -15 -27
-32 -9 -18 -21 -36 -26 -39 -5 -3 -10 -16 -11 -27 -1 -12 -5 -22 -10 -22 -4 0
-5 -4 -2 -10 3 -5 1 -10 -5 -10 -7 0 -10 -6 -7 -12 2 -7 0 -21 -4 -30 -5 -9
-11 -34 -13 -56 -2 -22 -6 -45 -10 -50 -3 -6 -2 -13 3 -16 5 -4 8 -14 6 -24
-1 -9 2 -27 6 -39 6 -16 5 -23 -3 -23 -9 0 -9 -3 0 -12 7 -7 12 -22 12 -35 0
-13 5 -23 11 -23 5 0 8 -4 5 -9 -3 -4 4 -28 16 -52 12 -24 21 -47 20 -51 -1
-5 2 -8 8 -8 5 0 10 -7 10 -15 0 -8 5 -15 10 -15 6 0 10 -7 10 -15 0 -8 5 -15
10 -15 6 0 10 -5 10 -10 0 -6 11 -22 24 -35 14 -14 29 -30 33 -37 4 -7 25 -27
45 -45 20 -17 34 -34 31 -37 -4 -3 1 -6 10 -6 9 0 22 -9 29 -20 7 -11 18 -20
25 -20 7 0 17 -8 22 -17 6 -10 11 -15 11 -11 0 7 60 -29 88 -53 7 -6 16 -8 19
-5 3 3 13 -2 22 -12 9 -9 25 -19 36 -20 11 -2 23 -9 27 -15 4 -7 8 -8 8 -4 0
4 10 2 23 -5 12 -7 25 -13 30 -14 4 -1 9 -3 12 -4 3 -1 9 -3 14 -4 5 0 13 -4
17 -8 4 -5 18 -8 30 -8 13 0 26 -5 29 -10 3 -6 17 -10 30 -10 13 0 26 -4 30
-10 3 -5 12 -7 20 -3 8 3 15 1 15 -4 0 -5 10 -9 23 -8 12 1 27 0 32 -4 14 -8
35 -11 72 -12 18 -1 31 -4 29 -7 -2 -4 22 -7 55 -7 32 0 59 -3 59 -7 0 -3 8
-4 18 -2 9 2 71 6 137 8 66 3 134 8 150 11 17 2 41 7 55 9 14 3 26 5 28 7 2 2
2 2 52 13 19 5 46 13 60 19 30 12 28 12 63 21 15 5 27 12 27 18 0 5 5 6 10 3
6 -3 10 -1 10 5 0 6 4 9 9 5 5 -3 12 -1 16 5 3 5 15 10 26 10 11 0 17 5 14 10
-3 6 0 10 8 10 8 0 20 7 27 15 7 8 16 12 21 9 5 -3 9 -1 9 4 0 5 15 20 34 33
19 13 32 27 30 31 -3 4 2 8 10 8 8 0 18 9 21 20 4 11 10 18 14 15 5 -2 17 11
27 30 10 19 21 35 24 35 3 0 14 20 24 45 11 25 22 45 25 45 4 0 8 8 9 18 2 23
10 57 13 57 1 0 2 11 3 25 1 14 5 31 9 38 5 7 3 12 -4 12 -7 0 -8 5 -3 13 8
11 10 32 4 47 -1 4 -9 67 -12 108 -1 6 -5 12 -9 12 -4 0 -7 -20 -6 -45 1 -25
-1 -45 -4 -45 -3 0 -6 -6 -6 -12 -2 -33 -15 -82 -28 -102 -8 -12 -12 -26 -8
-29 3 -4 1 -7 -5 -7 -7 0 -12 -5 -12 -11 0 -6 -14 -29 -31 -50 -34 -43 -89
-100 -89 -93 0 3 -12 -7 -27 -21 -16 -14 -36 -28 -45 -31 -10 -3 -18 -10 -18
-15 0 -5 -3 -8 -7 -7 -5 1 -27 -8 -49 -20 -23 -11 -44 -18 -48 -15 -3 4 -6 1
-6 -5 0 -7 -8 -12 -18 -12 -10 0 -23 -5 -30 -12 -7 -7 -12 -9 -12 -6 0 3 -28
-2 -62 -12 -34 -11 -65 -17 -69 -14 -4 2 -10 0 -14 -5 -3 -6 -12 -8 -20 -4 -8
3 -15 0 -15 -6 0 -8 -5 -9 -19 -1 -11 5 -22 6 -25 2 -3 -5 -25 -8 -50 -7 -26
0 -46 -3 -46 -8 0 -4 -5 -5 -12 -1 -15 9 -68 11 -68 3 0 -4 -15 -4 -32 0 -18
3 -48 6 -65 6 -18 0 -33 2 -33 5 0 3 -12 6 -27 5 -16 0 -44 3 -63 8 -19 4 -51
11 -70 14 -19 3 -37 8 -40 12 -3 3 -16 6 -30 6 -14 0 -33 7 -44 15 -10 8 -21
14 -25 12 -12 -5 -91 22 -91 32 0 5 -3 6 -6 3 -7 -7 -144 61 -155 76 -3 5 -10
9 -15 9 -22 1 -124 78 -194 148 -65 64 -150 174 -150 194 0 4 -9 26 -21 51
-12 25 -18 52 -15 60 3 9 2 13 -4 10 -5 -3 -10 4 -10 17 0 13 -1 52 -2 88 -1
56 2 78 16 135 1 6 8 20 14 33 7 12 11 22 10 21 -2 0 -9 -3 -16 -6z"/>
<path d="M645 1077 c-19 -22 -43 -92 -50 -147 -4 -30 -9 -58 -12 -62 -2 -5 2
-8 9 -8 8 -1 7 -5 -5 -14 -10 -8 -13 -16 -7 -18 6 -2 11 -14 12 -28 1 -14 6
-31 12 -39 9 -12 8 -13 -4 -6 -12 6 -13 5 -2 -6 6 -7 12 -21 12 -31 0 -18 3
-26 33 -84 9 -17 14 -33 11 -36 -2 -3 2 -11 11 -18 8 -7 15 -17 15 -22 0 -11
51 -81 63 -86 4 -2 7 -9 7 -15 0 -12 144 -158 155 -157 3 0 18 -11 33 -25 61
-57 65 -61 58 -45 -4 8 0 6 8 -4 9 -11 16 -16 16 -10 0 5 3 5 8 -1 10 -13 112
-67 112 -58 0 3 8 -1 18 -10 9 -8 20 -16 24 -17 35 -4 68 -14 68 -20 0 -3 6
-7 13 -8 6 0 37 -8 67 -17 62 -18 81 -23 111 -30 11 -2 29 -7 38 -10 10 -3 35
-6 55 -7 20 -1 36 -4 36 -7 0 -13 411 -14 428 -1 1 2 10 3 20 4 9 1 44 9 77
16 33 8 65 15 70 16 12 1 38 10 90 32 21 10 41 15 44 14 2 -2 7 0 10 5 3 5 17
14 31 21 38 18 88 48 105 62 28 24 15 32 -18 11 -19 -11 -36 -18 -39 -16 -3 3
-11 -1 -18 -10 -7 -8 -20 -15 -30 -15 -9 0 -20 -3 -24 -8 -4 -4 -11 -7 -14 -8
-4 0 -20 -6 -37 -13 -16 -7 -39 -15 -50 -17 -11 -3 -31 -8 -45 -11 -14 -3 -34
-7 -45 -8 -11 -2 -20 -4 -20 -5 0 -1 -16 -3 -35 -4 -20 -1 -40 -5 -45 -8 -6
-3 -50 -6 -99 -7 -50 -1 -92 -4 -94 -6 -3 -3 -11 0 -19 6 -9 8 -13 8 -13 0 0
-7 -8 -8 -24 -1 -15 5 -27 5 -35 -3 -7 -7 -11 -7 -11 -1 0 6 -16 10 -36 9 -19
0 -37 2 -39 5 -2 3 -26 5 -54 5 -28 0 -51 3 -51 8 0 4 -4 5 -10 2 -5 -3 -10
-2 -10 4 0 5 -8 8 -17 6 -10 -1 -28 2 -41 6 -13 5 -37 11 -55 14 -17 4 -37 11
-44 17 -7 6 -13 7 -13 4 0 -4 -9 -2 -21 4 -11 7 -33 14 -47 16 -15 3 -29 10
-33 15 -3 6 -16 11 -27 12 -12 1 -22 5 -22 9 0 4 -5 8 -11 8 -16 0 -83 32 -91
44 -5 7 -8 7 -8 1 0 -7 -3 -7 -8 0 -4 6 -23 19 -42 29 -41 23 -41 24 -100 76
-25 22 -48 40 -52 40 -5 0 -8 7 -8 15 0 8 -4 15 -10 15 -13 0 -50 37 -50 49 0
5 -4 11 -8 13 -11 4 -92 113 -92 122 0 5 -9 21 -21 37 -11 16 -17 29 -14 29 4
0 1 10 -8 23 -14 22 -33 85 -29 100 1 4 -2 7 -6 7 -5 0 -8 10 -7 23 1 12 -2
28 -8 35 -6 8 -5 12 4 12 11 0 11 2 -1 10 -11 7 -11 10 -2 10 8 0 10 5 5 13
-11 17 -10 40 2 56 7 11 7 13 -2 7 -7 -4 -13 -2 -13 3 0 6 4 11 8 11 4 0 9 14
10 32 2 17 8 38 14 45 13 16 -3 17 -17 0z"/>
<path d="M2481 251 c-7 -5 -12 -13 -10 -18 2 -5 12 -1 22 9 18 19 12 24 -12 9z"/>
</g>
</svg>
